<svg width="274" height="267" viewBox="0 0 274 267" fill="none" xmlns="http://www.w3.org/2000/svg">
<path d="M135.045 8C110.258 8 86.487 17.1873 68.9602 33.5408C51.4334 49.8943 41.5869 72.0744 41.5869 95.2017C41.5869 118.329 51.4334 140.509 68.9602 156.863C86.487 173.216 110.258 182.403 135.045 182.403C159.832 182.403 183.603 173.216 201.13 156.863C218.657 140.509 228.503 118.329 228.503 95.2017C228.503 72.0744 218.657 49.8943 201.13 33.5408C183.603 17.1873 159.832 8 135.045 8Z" stroke="white" stroke-width="16" stroke-linecap="round" stroke-linejoin="round"/>
<path d="M135.045 32.2446C117.103 32.2446 99.8964 38.8776 87.2096 50.6844C74.5229 62.4912 67.3955 78.5046 67.3955 95.2019C67.3955 111.899 74.5229 127.913 87.2096 139.719C99.8964 151.526 117.103 158.159 135.045 158.159C152.987 158.159 170.194 151.526 182.881 139.719C195.568 127.913 202.695 111.899 202.695 95.2019C202.695 78.5046 195.568 62.4912 182.881 50.6844C170.194 38.8776 152.987 32.2446 135.045 32.2446Z" stroke="white" stroke-width="16" stroke-linecap="round" stroke-linejoin="round"/>
<path d="M135.045 56.4888C124.052 56.4888 113.509 60.547 105.735 67.7708C97.9618 74.9946 93.5947 84.7921 93.5947 95.0081C93.5947 105.224 97.9618 115.022 105.735 122.245C113.509 129.469 124.052 133.527 135.045 133.527C146.038 133.527 156.581 129.469 164.354 122.245C172.128 115.022 176.495 105.224 176.495 95.0081C176.495 84.7921 172.128 74.9946 164.354 67.7708C156.581 60.547 146.038 56.4888 135.045 56.4888Z" stroke="white" stroke-width="16" stroke-linecap="round" stroke-linejoin="round"/>
<path d="M85.5296 249.907C80.7776 249.907 76.4096 248.803 72.4256 246.595C68.4416 244.339 65.2736 241.243 62.9216 237.307C60.6176 233.323 59.4656 228.835 59.4656 223.843C59.4656 218.851 60.6176 214.387 62.9216 210.451C65.2736 206.467 68.4416 203.371 72.4256 201.163C76.4096 198.955 80.7776 197.851 85.5296 197.851C90.3296 197.851 94.6976 198.955 98.6336 201.163C102.618 203.371 105.762 206.467 108.066 210.451C110.37 214.387 111.522 218.851 111.522 223.843C111.522 228.835 110.37 233.323 108.066 237.307C105.762 241.243 102.618 244.339 98.6336 246.595C94.6496 248.803 90.2816 249.907 85.5296 249.907ZM85.5296 236.803C89.1296 236.803 91.9616 235.627 94.0256 233.275C96.1376 230.923 97.1936 227.779 97.1936 223.843C97.1936 219.811 96.1376 216.643 94.0256 214.339C91.9616 211.987 89.1296 210.811 85.5296 210.811C81.8816 210.811 79.0256 211.987 76.9616 214.339C74.8976 216.643 73.8656 219.811 73.8656 223.843C73.8656 227.827 74.8976 230.995 76.9616 233.347C79.0256 235.651 81.8816 236.803 85.5296 236.803ZM157.537 198.643V209.875H144.001V249.403H129.889V209.875H116.497V198.643H157.537ZM188.535 249.907C183.783 249.907 179.415 248.803 175.431 246.595C171.447 244.339 168.279 241.243 165.927 237.307C163.623 233.323 162.471 228.835 162.471 223.843C162.471 218.851 163.623 214.387 165.927 210.451C168.279 206.467 171.447 203.371 175.431 201.163C179.415 198.955 183.783 197.851 188.535 197.851C193.335 197.851 197.703 198.955 201.639 201.163C205.623 203.371 208.767 206.467 211.071 210.451C213.375 214.387 214.527 218.851 214.527 223.843C214.527 228.835 213.375 233.323 211.071 237.307C208.767 241.243 205.623 244.339 201.639 246.595C197.655 248.803 193.287 249.907 188.535 249.907ZM188.535 236.803C192.135 236.803 194.967 235.627 197.031 233.275C199.143 230.923 200.199 227.779 200.199 223.843C200.199 219.811 199.143 216.643 197.031 214.339C194.967 211.987 192.135 210.811 188.535 210.811C184.887 210.811 182.031 211.987 179.967 214.339C177.903 216.643 176.871 219.811 176.871 223.843C176.871 227.827 177.903 230.995 179.967 233.347C182.031 235.651 184.887 236.803 188.535 236.803Z" fill="white"/>
</svg>
